<svg id="Layer_1" data-name="Layer 1" xmlns="http://www.w3.org/2000/svg" viewBox="0 0 270.54 183.01"><defs><style>.cls-1{fill:#a0cedc;}.cls-2{fill:#f2d37e;}.cls-3{fill:none;stroke:#2b374c;stroke-miterlimit:10;}.cls-4{fill:#2b374c;}.cls-5{fill:#221f20;}</style></defs><title>recycleicon</title><ellipse class="cls-1" cx="151.38" cy="90.15" rx="45.09" ry="46.06"/><ellipse class="cls-2" cx="106.28" cy="105.46" rx="35.52" ry="36.29"/><line class="cls-3" x1="216.83" y1="84.83" x2="222.76" y2="91.57"/><line class="cls-3" x1="227.13" y1="95.44" x2="233.07" y2="102.17"/><line class="cls-3" x1="226.83" y1="91.27" x2="233.38" y2="85.14"/><line class="cls-3" x1="216.21" y1="101.23" x2="222.76" y2="95.09"/><line class="cls-3" x1="71.98" y1="30.76" x2="79.32" y2="39.08"/><line class="cls-3" x1="84.72" y1="43.87" x2="92.06" y2="52.2"/><line class="cls-3" x1="84.34" y1="38.72" x2="92.45" y2="31.14"/><line class="cls-3" x1="71.22" y1="51.02" x2="79.32" y2="43.44"/><line class="cls-3" x1="43.71" y1="108.03" x2="53.88" y2="119.57"/><line class="cls-3" x1="61.37" y1="126.21" x2="71.54" y2="137.75"/><line class="cls-3" x1="60.84" y1="119.06" x2="72.08" y2="108.55"/><line class="cls-3" x1="42.64" y1="136.12" x2="53.88" y2="125.61"/><line class="cls-3" x1="194.68" y1="33.46" x2="198.56" y2="37.86"/><line class="cls-3" x1="201.42" y1="40.4" x2="205.3" y2="44.8"/><line class="cls-3" x1="201.22" y1="37.67" x2="205.51" y2="33.66"/><line class="cls-3" x1="194.27" y1="44.18" x2="198.56" y2="40.17"/><circle class="cls-4" cx="38.05" cy="76.11" r="4.61"/><circle class="cls-4" cx="205.51" cy="129.83" r="4.61"/><circle class="cls-4" cx="132.9" cy="23.85" r="2.29"/><circle class="cls-4" cx="18.97" cy="103.05" r="2.29"/><circle class="cls-4" cx="259.91" cy="110.91" r="2.29"/><path class="cls-5" d="M121.38,126.8c2.26,0,4.53,0,6.79,0a4.58,4.58,0,0,0,4.08-6.71,4.69,4.69,0,0,0-4.43-2.5c-4.29,0-8.58.06-12.86.06a4.46,4.46,0,0,1-3.95-6.69c1.24-2.23,2.52-4.44,3.78-6.66a1,1,0,0,1,1.48-.41c.58.32,1.15.64,1.71,1a1,1,0,0,0,1.19,0,1,1,0,0,0,.28-1.16L116.6,93.41c-.21-.78-.62-1-1.38-.83l-10.44,2.89a.93.93,0,0,0-.24,1.74l1.76,1c.73.42.85.84.43,1.57l-3.64,6.41a13.28,13.28,0,0,0-1.62,9.65,13.66,13.66,0,0,0,13.7,11Zm30.49-.16c1.3,0,2.59,0,3.89,0a13.69,13.69,0,0,0,11.91-20.27c-2.14-3.79-4.35-7.54-6.58-11.29a4.6,4.6,0,0,0-8.28.82,4.75,4.75,0,0,0,.57,4.26q3.12,5.27,6.17,10.57a4.44,4.44,0,0,1-3.74,6.68c-2.81.07-5.62.05-8.43.05-.63,0-.94-.33-.95-1s0-1.38,0-2.06a1,1,0,0,0-.62-1,1,1,0,0,0-1.1.33l-7.55,7.62a1,1,0,0,0,0,1.57l7.63,7.54a1,1,0,0,0,1.72-.7c0-.68,0-1.35,0-2s.31-1,1-1ZM135.11,64.13c-.64.05-1.23.07-1.82.15a12.59,12.59,0,0,0-9.45,5.79c-2.56,4.07-4.86,8.31-7.21,12.51a4.44,4.44,0,0,0,.73,5,4.61,4.61,0,0,0,7.47-.88c2.12-3.69,4.22-7.4,6.33-11.09a4.5,4.5,0,0,1,7.75-.18c1.41,2.3,2.75,4.65,4.11,7a.91.91,0,0,1-.38,1.4l-1.82,1.07a.91.91,0,0,0-.52.93.92.92,0,0,0,.74.82l10.68,2.75a.9.9,0,0,0,1.16-.76q1.37-5.23,2.74-10.48a1,1,0,0,0-.32-1.09.9.9,0,0,0-1.1,0c-.56.34-1.13.67-1.7,1-.74.42-1.16.32-1.59-.4-1.21-2.06-2.45-4.11-3.63-6.19A13.67,13.67,0,0,0,135.11,64.13Z"/><path class="cls-5" d="M121.38,126.8l-6.21,0a13.66,13.66,0,0,1-13.7-11,13.28,13.28,0,0,1,1.62-9.65l3.64-6.41c.42-.73.3-1.15-.43-1.57l-1.76-1a.93.93,0,0,1,.24-1.74l10.44-2.89c.76-.21,1.17,0,1.38.83l2.85,10.25a1,1,0,0,1-.28,1.16,1,1,0,0,1-1.19,0c-.56-.33-1.13-.65-1.71-1a1,1,0,0,0-1.48.41c-1.26,2.22-2.54,4.43-3.78,6.66a4.46,4.46,0,0,0,3.95,6.69c4.28,0,8.57,0,12.86-.06a4.69,4.69,0,0,1,4.43,2.5,4.58,4.58,0,0,1-4.08,6.71C125.91,126.8,123.64,126.79,121.38,126.8Z"/><path class="cls-5" d="M151.87,126.64l-4.33,0c-.74,0-1,.32-1,1s0,1.34,0,2a1,1,0,0,1-1.72.7l-7.63-7.54a1,1,0,0,1,0-1.57l7.55-7.62a1,1,0,0,1,1.1-.33,1,1,0,0,1,.62,1c0,.68,0,1.37,0,2.06s.32,1,.95,1c2.81,0,5.62,0,8.43-.05a4.44,4.44,0,0,0,3.74-6.68q-3-5.31-6.17-10.57a4.75,4.75,0,0,1-.57-4.26,4.6,4.6,0,0,1,8.28-.82c2.23,3.75,4.44,7.5,6.58,11.29a13.69,13.69,0,0,1-11.91,20.27C154.46,126.64,153.17,126.63,151.87,126.64Z"/><path class="cls-5" d="M135.11,64.13a13.67,13.67,0,0,1,12.17,7.36c1.18,2.08,2.42,4.13,3.63,6.19.43.72.85.82,1.59.4.57-.33,1.14-.66,1.7-1a.9.9,0,0,1,1.1,0,1,1,0,0,1,.32,1.09q-1.38,5.23-2.74,10.48a.9.9,0,0,1-1.16.76L141,86.67a.92.92,0,0,1-.74-.82.91.91,0,0,1,.52-.93l1.82-1.07a.91.91,0,0,0,.38-1.4c-1.36-2.34-2.7-4.69-4.11-7a4.5,4.5,0,0,0-7.75.18c-2.11,3.69-4.21,7.4-6.33,11.09a4.61,4.61,0,0,1-7.47.88,4.44,4.44,0,0,1-.73-5c2.35-4.2,4.65-8.44,7.21-12.51a12.59,12.59,0,0,1,9.45-5.79C133.88,64.2,134.47,64.18,135.11,64.13Z"/></svg>